<?xml version="1.0" encoding="UTF-8" standalone="no"?>
<!-- Uploaded to: SVG Repo, www.svgrepo.com, Generator: SVG Repo Mixer Tools -->

<svg
   fill="#000000"
   height="800px"
   width="800px"
   version="1.1"
   id="Layer_1"
   viewBox="0 0 64 64"
   enable-background="new 0 0 64 64"
   xml:space="preserve"
   sodipodi:docname="copy-icon.svg"
   inkscape:version="1.4 (e7c3feb1, 2024-10-09)"
   xmlns:inkscape="http://www.inkscape.org/namespaces/inkscape"
   xmlns:sodipodi="http://sodipodi.sourceforge.net/DTD/sodipodi-0.dtd"
   xmlns="http://www.w3.org/2000/svg"
   xmlns:svg="http://www.w3.org/2000/svg"><defs
   id="defs5" /><sodipodi:namedview
   id="namedview5"
   pagecolor="#ffffff"
   bordercolor="#000000"
   borderopacity="0.25"
   inkscape:showpageshadow="2"
   inkscape:pageopacity="0.0"
   inkscape:pagecheckerboard="0"
   inkscape:deskcolor="#d1d1d1"
   inkscape:zoom="1.26125"
   inkscape:cx="400"
   inkscape:cy="399.60357"
   inkscape:window-width="2560"
   inkscape:window-height="1387"
   inkscape:window-x="0"
   inkscape:window-y="25"
   inkscape:window-maximized="0"
   inkscape:current-layer="Layer_1" />
<g
   id="Text-files"
   style="fill:#ffffff;fill-opacity:1">
	<path
   d="m 53.979149,9.1429005 h -3.9683 c -0.0827,0 -0.1562,0.0284 -0.233101,0.047 V 5.0228 C 49.777748,2.253 47.473148,0 44.639847,0 H 10.217251 C 7.3839517,0 5.0793519,2.253 5.0793519,5.0228 v 46.8433 c 0,2.769798 2.3045998,5.0228 5.1379001,5.0228 h 6.0367 v 2.267899 C 16.253952,61.8274 18.470251,64 21.195452,64 h 32.783699 c 2.7252,0 4.941497,-2.1726 4.941497,-4.843201 V 13.9861 c -10e-7,-2.6706 -2.216299,-4.8431995 -4.941499,-4.8431995 z M 7.1110516,51.8661 V 5.0228 c 0,-1.6487999 1.3938999,-2.9909999 3.1062004,-2.9909999 h 34.422596 c 1.712303,0 3.106201,1.3422 3.106201,2.9909999 v 46.8433 c 0,1.6488 -1.393898,2.9911 -3.106201,2.9911 H 10.217252 c -1.7123005,1e-6 -3.1062004,-1.3423 -3.1062004,-2.9911 z m 49.7777954,7.290699 c 0,1.550602 -1.3055,2.811501 -2.909698,2.811501 H 21.19545 c -1.6042,0 -2.9098,-1.260899 -2.9098,-2.811501 v -2.267898 h 26.354195 c 2.833301,0 5.137901,-2.253002 5.137901,-5.022801 V 11.1276 c 0.0769,0.0186 0.150402,0.047 0.233101,0.047 h 3.9683 c 1.604199,0 2.909699,1.2609 2.909699,2.8115 z"
   id="path1"
   style="display:inline;fill:#ffffff;fill-opacity:1" />
	<path
   d="M 38.603149,13.2064 H 16.253952 c -0.5615,0 -1.015901,0.4543 -1.015901,1.0158 0,0.5616 0.454401,1.0159 1.015901,1.0159 h 22.349197 c 0.561501,0 1.0159,-0.4543 1.0159,-1.0159 0,-0.5615 -0.454399,-1.0158 -1.0159,-1.0158 z"
   id="path2"
   style="display:none;fill:#ffffff;fill-opacity:1" />
	<path
   d="M 38.603149,21.333401 H 16.253952 c -0.5615,0 -1.015901,0.4543 -1.015901,1.015798 0,0.561501 0.454401,1.015902 1.015901,1.015902 h 22.349197 c 0.561501,0 1.0159,-0.454401 1.0159,-1.015902 0,-0.561498 -0.454399,-1.015798 -1.0159,-1.015798 z"
   id="path3"
   style="display:none;fill:#ffffff;fill-opacity:1" />
	<path
   d="M 38.603149,29.4603 H 16.253952 c -0.5615,0 -1.015901,0.454399 -1.015901,1.0159 0,0.561501 0.454401,1.0159 1.015901,1.0159 h 22.349197 c 0.561501,0 1.0159,-0.454399 1.0159,-1.0159 0,-0.561501 -0.454399,-1.0159 -1.0159,-1.0159 z"
   id="path4"
   style="display:none;fill:#ffffff;fill-opacity:1" />
	<path
   d="M 28.444448,37.587299 H 16.253952 c -0.5615,0 -1.015901,0.454399 -1.015901,1.0159 0,0.561501 0.454401,1.0159 1.015901,1.0159 h 12.190496 c 0.561503,0 1.015801,-0.454399 1.015801,-1.0159 0,-0.561501 -0.454298,-1.0159 -1.015801,-1.0159 z"
   id="path5"
   style="display:none;fill:#ffffff;fill-opacity:1" />
</g>
</svg>
