<?xml version="1.0" encoding="UTF-8" standalone="no"?>
<svg
   width="132.004"
   height="132"
   version="1.1"
   id="svg9"
   sodipodi:docname="instagram_bw.svg"
   inkscape:version="1.4 (e7c3feb1, 2024-10-09)"
   xmlns:inkscape="http://www.inkscape.org/namespaces/inkscape"
   xmlns:sodipodi="http://sodipodi.sourceforge.net/DTD/sodipodi-0.dtd"
   xmlns:xlink="http://www.w3.org/1999/xlink"
   xmlns="http://www.w3.org/2000/svg"
   xmlns:svg="http://www.w3.org/2000/svg">
  <sodipodi:namedview
     id="namedview9"
     pagecolor="#ffffff"
     bordercolor="#000000"
     borderopacity="0.25"
     inkscape:showpageshadow="2"
     inkscape:pageopacity="0.0"
     inkscape:pagecheckerboard="0"
     inkscape:deskcolor="#d1d1d1"
     inkscape:zoom="7.6439394"
     inkscape:cx="66"
     inkscape:cy="65.934589"
     inkscape:window-width="2560"
     inkscape:window-height="1387"
     inkscape:window-x="0"
     inkscape:window-y="25"
     inkscape:window-maximized="0"
     inkscape:current-layer="svg9" />
  <defs
     id="defs7">
    <linearGradient
       id="b">
      <stop
         offset="0"
         stop-color="#3771c8"
         id="stop1" />
      <stop
         stop-color="#3771c8"
         offset=".128"
         id="stop2" />
      <stop
         offset="1"
         stop-color="#60f"
         stop-opacity="0"
         id="stop3" />
    </linearGradient>
    <linearGradient
       id="a">
      <stop
         offset="0"
         stop-color="#fd5"
         id="stop4" />
      <stop
         offset=".1"
         stop-color="#fd5"
         id="stop5" />
      <stop
         offset=".5"
         stop-color="#ff543e"
         id="stop6" />
      <stop
         offset="1"
         stop-color="#c837ab"
         id="stop7" />
    </linearGradient>
    <radialGradient
       id="c"
       cx="158.429"
       cy="578.088"
       r="65"
       xlink:href="#a"
       gradientUnits="userSpaceOnUse"
       gradientTransform="matrix(0 -1.98198 1.8439 0 -1031.402 454.004)"
       fx="158.429"
       fy="578.088" />
    <radialGradient
       id="d"
       cx="147.694"
       cy="473.455"
       r="65"
       xlink:href="#b"
       gradientUnits="userSpaceOnUse"
       gradientTransform="matrix(.17394 .86872 -3.5818 .71718 1648.348 -458.493)"
       fx="147.694"
       fy="473.455" />
  </defs>
  <path
     fill="url(#c)"
     d="M 65.03,0 C 37.888,0 29.95,0.028 28.407,0.156 22.837,0.619 19.371,1.496 15.595,3.376 12.685,4.821 10.39,6.496 8.125,8.844 4,13.126 1.5,18.394 0.595,24.656 c -0.44,3.04 -0.568,3.66 -0.594,19.188 -0.01,5.176 0,11.988 0,21.125 0,27.12 0.03,35.05 0.16,36.59 0.45,5.42 1.3,8.83 3.1,12.56 3.44,7.14 10.01,12.5 17.75,14.5 2.68,0.69 5.64,1.07 9.44,1.25 1.61,0.07 18.02,0.12 34.44,0.12 16.42,0 32.84,-0.02 34.41,-0.1 4.4,-0.207 6.955,-0.55 9.78,-1.28 7.79,-2.01 14.24,-7.29 17.75,-14.53 1.765,-3.64 2.66,-7.18 3.065,-12.317 0.088,-1.12 0.125,-18.977 0.125,-36.81 0,-17.836 -0.04,-35.66 -0.128,-36.78 -0.41,-5.22 -1.305,-8.73 -3.127,-12.44 -1.495,-3.037 -3.155,-5.305 -5.565,-7.624 C 116.9,4 111.64,1.5 105.372,0.596 102.335,0.157 101.73,0.027 86.19,0 Z"
     id="path7"
     style="display:none;fill:#000000;fill-opacity:1"
     inkscape:label="path7"
     transform="translate(1.004,1)" />
  <path
     fill="url(#d)"
     d="M 65.03,0 C 37.888,0 29.95,0.028 28.407,0.156 22.837,0.619 19.371,1.496 15.595,3.376 12.685,4.821 10.39,6.496 8.125,8.844 4,13.126 1.5,18.394 0.595,24.656 c -0.44,3.04 -0.568,3.66 -0.594,19.188 -0.01,5.176 0,11.988 0,21.125 0,27.12 0.03,35.05 0.16,36.59 0.45,5.42 1.3,8.83 3.1,12.56 3.44,7.14 10.01,12.5 17.75,14.5 2.68,0.69 5.64,1.07 9.44,1.25 1.61,0.07 18.02,0.12 34.44,0.12 16.42,0 32.84,-0.02 34.41,-0.1 4.4,-0.207 6.955,-0.55 9.78,-1.28 7.79,-2.01 14.24,-7.29 17.75,-14.53 1.765,-3.64 2.66,-7.18 3.065,-12.317 0.088,-1.12 0.125,-18.977 0.125,-36.81 0,-17.836 -0.04,-35.66 -0.128,-36.78 -0.41,-5.22 -1.305,-8.73 -3.127,-12.44 -1.495,-3.037 -3.155,-5.305 -5.565,-7.624 C 116.9,4 111.64,1.5 105.372,0.596 102.335,0.157 101.73,0.027 86.19,0 Z"
     transform="translate(1.004,1)"
     id="path8"
     style="display:none" />
  <path
     fill="#ffffff"
     d="M 66.004,18 C 56.328758,18.273401 46.421593,17.283861 36.951281,19.703703 27.198376,22.224034 19.959664,31.184207 18.781891,41.081131 17.487648,53.622241 18.145629,66.273157 18.058,78.862 c -0.0045,9.238495 0.60123,19.617125 7.509471,26.57752 6.425132,7.18356 16.601684,8.53684 25.715246,8.46463 12.947546,0.006 25.942884,0.53731 38.855895,-0.57597 9.949928,-0.9546 19.205118,-7.90715 21.963798,-17.661275 C 114.80019,86.036167 113.69586,75.878826 113.999,66 113.69564,56.119687 114.80058,45.960734 112.10241,36.328552 109.34544,26.569486 100.08239,19.625523 90.131332,18.67182 82.138756,17.805815 73.980473,18.071651 66.004,18 Z m -4.306,8.65 c 9.753486,0.193719 19.602464,-0.524715 29.2785,0.936375 7.453705,1.153819 13.13272,7.798204 13.75106,15.21271 1.0564,12.495228 0.53063,25.070525 0.53511,37.598802 -0.0687,7.228942 -0.42595,15.728874 -6.690154,20.552453 -6.845738,5.29545 -16.014272,3.9833 -24.105549,4.3619 -10.954592,-0.17333 -21.987162,0.54802 -32.880915,-0.81588 -7.419634,-0.96874 -13.422788,-7.282215 -14.212661,-14.691145 -1.217985,-11.750511 -0.557398,-23.607407 -0.681421,-35.4036 0.216546,-7.834189 -0.396708,-17.16632 6.110686,-22.847537 6.55204,-5.783081 15.885322,-4.544553 23.958364,-4.901396 1.643395,-0.0034 3.313097,-0.02621 4.93698,-0.0027 z m 29.928,7.97 c -4.932023,-0.269451 -7.74993,6.533714 -4.0725,9.8305 3.297029,3.677434 10.10055,0.859227 9.8325,-4.0725 0.07389,-3.086813 -2.675855,-5.837118 -5.76,-5.758 z M 66.004,41.35 C 53.747425,41.069525 42.461989,51.26343 41.481274,63.479816 39.948315,75.665601 48.965112,87.932908 61.0364,90.144381 72.81418,92.828886 85.716165,85.415153 89.355187,73.905121 93.470106,62.532241 87.687847,48.799331 76.688859,43.780897 73.37164,42.176953 69.684421,41.344821 66.004,41.35 Z m 0,8.65 C 75.464354,49.693552 83.559999,59.131494 81.819631,68.436514 80.676054,77.808205 70.171793,84.370931 61.245925,81.280624 52.164538,78.756238 47.229032,67.429933 51.581698,59.063145 54.150075,53.607424 59.965918,49.929934 66.004,50 Z"
     id="path9"
     style="display:inline;fill:#ffffff;fill-opacity:1" />
</svg>
