<?xml version="1.0" encoding="UTF-8" standalone="no"?>
<svg
   version="1.1"
   width="256"
   height="256"
   viewBox="0 0 256 256"
   xml:space="preserve"
   id="svg5"
   sodipodi:docname="mail.svg"
   inkscape:version="1.4 (e7c3feb1, 2024-10-09)"
   xmlns:inkscape="http://www.inkscape.org/namespaces/inkscape"
   xmlns:sodipodi="http://sodipodi.sourceforge.net/DTD/sodipodi-0.dtd"
   xmlns="http://www.w3.org/2000/svg"
   xmlns:svg="http://www.w3.org/2000/svg"><sodipodi:namedview
   id="namedview5"
   pagecolor="#ffffff"
   bordercolor="#000000"
   borderopacity="0.25"
   inkscape:showpageshadow="2"
   inkscape:pageopacity="0.0"
   inkscape:pagecheckerboard="0"
   inkscape:deskcolor="#d1d1d1"
   inkscape:zoom="3.9414062"
   inkscape:cx="128"
   inkscape:cy="127.87314"
   inkscape:window-width="2560"
   inkscape:window-height="1387"
   inkscape:window-x="0"
   inkscape:window-y="25"
   inkscape:window-maximized="0"
   inkscape:current-layer="svg5" />

<defs
   id="defs1">
</defs>
<g
   style="stroke:none;stroke-width:0;stroke-dasharray:none;stroke-linecap:butt;stroke-linejoin:miter;stroke-miterlimit:10;fill:#ffffff;fill-rule:nonzero;opacity:1;fill-opacity:1"
   transform="translate(1.4065934065934016 1.4065934065934016) scale(2.81 2.81)"
   id="g5">
	<path
   d="M 75.546 78.738 H 14.455 C 6.484 78.738 0 72.254 0 64.283 V 25.716 c 0 -7.97 6.485 -14.455 14.455 -14.455 h 61.091 c 7.97 0 14.454 6.485 14.454 14.455 v 38.567 C 90 72.254 83.516 78.738 75.546 78.738 z M 14.455 15.488 c -5.64 0 -10.228 4.588 -10.228 10.228 v 38.567 c 0 5.64 4.588 10.229 10.228 10.229 h 61.091 c 5.64 0 10.228 -4.589 10.228 -10.229 V 25.716 c 0 -5.64 -4.588 -10.228 -10.228 -10.228 H 14.455 z"
   style="stroke:none;stroke-width:1;stroke-dasharray:none;stroke-linecap:butt;stroke-linejoin:miter;stroke-miterlimit:10;fill:#ffffff;fill-rule:nonzero;opacity:1;fill-opacity:1"
   transform=" matrix(1 0 0 1 0 0) "
   stroke-linecap="round"
   id="path1" />
	<path
   d="M 11.044 25.917 C 21.848 36.445 32.652 46.972 43.456 57.5 c 2.014 1.962 5.105 -1.122 3.088 -3.088 C 35.74 43.885 24.936 33.357 14.132 22.83 C 12.118 20.867 9.027 23.952 11.044 25.917 L 11.044 25.917 z"
   style="stroke:none;stroke-width:1;stroke-dasharray:none;stroke-linecap:butt;stroke-linejoin:miter;stroke-miterlimit:10;fill:#ffffff;fill-rule:nonzero;opacity:1;fill-opacity:1"
   transform=" matrix(1 0 0 1 0 0) "
   stroke-linecap="round"
   id="path2" />
	<path
   d="M 46.544 57.5 c 10.804 -10.527 21.608 -21.055 32.412 -31.582 c 2.016 -1.965 -1.073 -5.051 -3.088 -3.088 C 65.064 33.357 54.26 43.885 43.456 54.412 C 41.44 56.377 44.529 59.463 46.544 57.5 L 46.544 57.5 z"
   style="stroke:none;stroke-width:1;stroke-dasharray:none;stroke-linecap:butt;stroke-linejoin:miter;stroke-miterlimit:10;fill:#ffffff;fill-rule:nonzero;opacity:1;fill-opacity:1"
   transform=" matrix(1 0 0 1 0 0) "
   stroke-linecap="round"
   id="path3" />
	<path
   d="M 78.837 64.952 c -7.189 -6.818 -14.379 -13.635 -21.568 -20.453 c -2.039 -1.933 -5.132 1.149 -3.088 3.088 c 7.189 6.818 14.379 13.635 21.568 20.453 C 77.788 69.973 80.881 66.89 78.837 64.952 L 78.837 64.952 z"
   style="stroke:none;stroke-width:1;stroke-dasharray:none;stroke-linecap:butt;stroke-linejoin:miter;stroke-miterlimit:10;fill:#ffffff;fill-rule:nonzero;opacity:1;fill-opacity:1"
   transform=" matrix(1 0 0 1 0 0) "
   stroke-linecap="round"
   id="path4" />
	<path
   d="M 14.446 68.039 c 7.189 -6.818 14.379 -13.635 21.568 -20.453 c 2.043 -1.938 -1.048 -5.022 -3.088 -3.088 c -7.189 6.818 -14.379 13.635 -21.568 20.453 C 9.315 66.889 12.406 69.974 14.446 68.039 L 14.446 68.039 z"
   style="stroke:none;stroke-width:1;stroke-dasharray:none;stroke-linecap:butt;stroke-linejoin:miter;stroke-miterlimit:10;fill:#ffffff;fill-rule:nonzero;opacity:1;fill-opacity:1"
   transform=" matrix(1 0 0 1 0 0) "
   stroke-linecap="round"
   id="path5" />
</g>
</svg>
