<?xml version="1.0" encoding="UTF-8" standalone="no"?>
<!-- Generator: Adobe Illustrator 24.2.1, SVG Export Plug-In . SVG Version: 6.00 Build 0)  -->

<svg
   version="1.1"
   id="Artwork"
   x="0px"
   y="0px"
   width="361px"
   height="361px"
   viewBox="0 0 361 361"
   style="enable-background:new 0 0 361 361;"
   xml:space="preserve"
   sodipodi:docname="Apple_Music_icon.svg"
   inkscape:version="1.4 (e7c3feb1, 2024-10-09)"
   xmlns:inkscape="http://www.inkscape.org/namespaces/inkscape"
   xmlns:sodipodi="http://sodipodi.sourceforge.net/DTD/sodipodi-0.dtd"
   xmlns="http://www.w3.org/2000/svg"
   xmlns:svg="http://www.w3.org/2000/svg"><defs
   id="defs9" /><sodipodi:namedview
   id="namedview9"
   pagecolor="#ffffff"
   bordercolor="#000000"
   borderopacity="0.25"
   inkscape:showpageshadow="2"
   inkscape:pageopacity="0.0"
   inkscape:pagecheckerboard="0"
   inkscape:deskcolor="#d1d1d1"
   inkscape:zoom="2.7950139"
   inkscape:cx="180.67889"
   inkscape:cy="180.67889"
   inkscape:window-width="2560"
   inkscape:window-height="1387"
   inkscape:window-x="0"
   inkscape:window-y="25"
   inkscape:window-maximized="0"
   inkscape:current-layer="Artwork" />
<style
   type="text/css"
   id="style1">
	.st0{fill-rule:evenodd;clip-rule:evenodd;fill:url(#SVGID_1_);}
	.st1{fill-rule:evenodd;clip-rule:evenodd;fill:#FFFFFF;}
</style>
<g
   id="Layer_5"
   style="display:none">
</g>
<g
   id="g2"
   style="display:inline;fill:#ffffff;fill-opacity:1">
	<linearGradient
   id="SVGID_1_"
   gradientUnits="userSpaceOnUse"
   x1="180"
   y1="358.60471"
   x2="180"
   y2="7.7586002">
		<stop
   offset="0"
   style="stop-color:#FA233B"
   id="stop1" />
		<stop
   offset="1"
   style="stop-color:#FB5C74"
   id="stop2" />
	</linearGradient>
	<path
   class="st0"
   d="m 360,112.61 c 0,-4.3 0,-8.6 -0.02,-12.9 -0.02,-3.62 -0.06,-7.24 -0.16,-10.86 -0.21,-7.89 -0.68,-15.84 -2.08,-23.64 -1.42,-7.92 -3.75,-15.29 -7.41,-22.49 -3.6,-7.07 -8.3,-13.53 -13.91,-19.14 C 330.81,17.97 324.34,13.27 317.27,9.67 310.08,6.01 302.71,3.69 294.8,2.26 287,0.86 279.04,0.39 271.15,0.18 267.53,0.08 263.91,0.04 260.29,0.02 255.99,0 251.69,0 247.39,0 H 112.61 c -4.3,0 -8.6,0 -12.9,0.02 C 96.09,0.04 92.47,0.08 88.85,0.18 80.96,0.4 73,0.86 65.2,2.27 57.28,3.69 49.92,6.02 42.73,9.68 35.66,13.28 29.19,17.98 23.58,23.59 17.97,29.2 13.27,35.66 9.67,42.73 6.01,49.93 3.68,57.3 2.26,65.22 0.86,73.02 0.39,80.98 0.18,88.86 0.08,92.48 0.04,96.1 0.02,99.72 0,104.01 0,108.31 0,112.61 v 134.77 c 0,4.3 0,8.6 0.02,12.9 0.02,3.62 0.06,7.24 0.16,10.86 0.21,7.89 0.68,15.84 2.08,23.64 1.42,7.92 3.75,15.29 7.41,22.49 3.6,7.07 8.3,13.53 13.91,19.14 5.61,5.61 12.08,10.31 19.15,13.91 7.19,3.66 14.56,5.98 22.47,7.41 7.8,1.4 15.76,1.87 23.65,2.08 3.62,0.1 7.24,0.14 10.86,0.16 4.3,0.03 8.6,0.02 12.9,0.02 h 134.77 c 4.3,0 8.6,0 12.9,-0.02 3.62,-0.02 7.24,-0.06 10.86,-0.16 7.89,-0.21 15.85,-0.68 23.65,-2.08 7.92,-1.42 15.28,-3.75 22.47,-7.41 7.07,-3.6 13.54,-8.3 19.15,-13.91 5.61,-5.61 10.31,-12.07 13.91,-19.14 3.66,-7.2 5.99,-14.57 7.41,-22.49 1.4,-7.8 1.87,-15.76 2.08,-23.64 0.1,-3.62 0.14,-7.24 0.16,-10.86 0.03,-4.3 0.02,-8.6 0.02,-12.9 V 112.61 Z"
   id="path2"
   style="fill:#ffffff;fill-opacity:1" />
</g>
<g
   id="Glyph_2_"
   style="display:inline;fill:#000000;fill-opacity:1">
	<g
   id="g3"
   style="fill:#000000;fill-opacity:1">
		<path
   class="st1"
   d="m 254.5,55 c -0.87,0.08 -8.6,1.45 -9.53,1.64 l -107,21.59 -0.04,0.01 c -2.79,0.59 -4.98,1.58 -6.67,3 -2.04,1.71 -3.17,4.13 -3.6,6.95 -0.09,0.6 -0.24,1.82 -0.24,3.62 0,0 0,109.32 0,133.92 0,3.13 -0.25,6.17 -2.37,8.76 -2.12,2.59 -4.74,3.37 -7.81,3.99 -2.33,0.47 -4.66,0.94 -6.99,1.41 -8.84,1.78 -14.59,2.99 -19.8,5.01 -4.98,1.93 -8.71,4.39 -11.68,7.51 -5.89,6.17 -8.28,14.54 -7.46,22.38 0.7,6.69 3.71,13.09 8.88,17.82 3.49,3.2 7.85,5.63 12.99,6.66 5.33,1.07 11.01,0.7 19.31,-0.98 4.42,-0.89 8.56,-2.28 12.5,-4.61 3.9,-2.3 7.24,-5.37 9.85,-9.11 2.62,-3.75 4.31,-7.92 5.24,-12.35 0.96,-4.57 1.19,-8.7 1.19,-13.26 V 142.81 c 0,-6.22 1.76,-7.86 6.78,-9.08 0,0 88.94,-17.94 93.09,-18.75 5.79,-1.11 8.52,0.54 8.52,6.61 v 79.29 c 0,3.14 -0.03,6.32 -2.17,8.92 -2.12,2.59 -4.74,3.37 -7.81,3.99 -2.33,0.47 -4.66,0.94 -6.99,1.41 -8.84,1.78 -14.59,2.99 -19.8,5.01 -4.98,1.93 -8.71,4.39 -11.68,7.51 -5.89,6.17 -8.49,14.54 -7.67,22.38 0.7,6.69 3.92,13.09 9.09,17.82 3.49,3.2 7.85,5.56 12.99,6.6 5.33,1.07 11.01,0.69 19.31,-0.98 4.42,-0.89 8.56,-2.22 12.5,-4.55 3.9,-2.3 7.24,-5.37 9.85,-9.11 2.62,-3.75 4.31,-7.92 5.24,-12.35 0.96,-4.57 1,-8.7 1,-13.26 V 64.46 C 263.54,58.3 260.29,54.5 254.5,55 Z"
   id="path3"
   style="fill:#000000;fill-opacity:1" />
	</g>
</g>
<g
   id="g4"
   style="display:none">
</g>
<g
   id="g5"
   style="display:none">
</g>
<g
   id="g6"
   style="display:none">
</g>
<g
   id="g7"
   style="display:none">
</g>
<g
   id="g8"
   style="display:none">
</g>
<g
   id="g9"
   style="display:none">
</g>
</svg>
