<?xml version="1.0" encoding="UTF-8" standalone="no"?>
<svg
   version="1.1"
   id="Layer_1"
   x="0px"
   y="0px"
   viewBox="0 0 115.77 122.88"
   style="enable-background:new 0 0 115.77 122.88"
   xml:space="preserve"
   sodipodi:docname="copy-icon.svg"
   inkscape:version="1.4 (e7c3feb1, 2024-10-09)"
   xmlns:inkscape="http://www.inkscape.org/namespaces/inkscape"
   xmlns:sodipodi="http://sodipodi.sourceforge.net/DTD/sodipodi-0.dtd"
   xmlns="http://www.w3.org/2000/svg"
   xmlns:svg="http://www.w3.org/2000/svg"><defs
     id="defs1" /><sodipodi:namedview
     id="namedview1"
     pagecolor="#ffffff"
     bordercolor="#000000"
     borderopacity="0.25"
     inkscape:showpageshadow="2"
     inkscape:pageopacity="0.0"
     inkscape:pagecheckerboard="0"
     inkscape:deskcolor="#d1d1d1"
     inkscape:zoom="8.2112632"
     inkscape:cx="57.908264"
     inkscape:cy="61.500891"
     inkscape:window-width="2560"
     inkscape:window-height="1387"
     inkscape:window-x="0"
     inkscape:window-y="25"
     inkscape:window-maximized="0"
     inkscape:current-layer="Layer_1" /><style
     type="text/css"
     id="style1">.st0{fill-rule:evenodd;clip-rule:evenodd;}</style><g
     id="g1"
     style="fill:#ffffff;fill-opacity:1"><path
       class="st0"
       d="m 89.62,13.96 c 0,2.576667 0,5.153333 0,7.73 7.730804,0.42804 17.4654,-2.005111 22.95124,5.111929 5.14574,6.490111 2.60344,15.116275 3.19299,22.689304 -0.078,20.535965 0.20213,41.087443 -0.15632,61.613717 -1.05856,7.58821 -9.02332,12.87449 -16.445937,11.77224 -20.634577,-0.17344 -41.305551,0.3695 -61.91724,-0.28429 C 29.61783,121.15752 25.002808,112.91855 26.15,105.54153 c 0,-4.34385 0,-8.687706 0,-13.03156 C 18.419682,92.082702 8.6875393,94.513242 3.2002408,87.399669 -1.9074614,80.984074 0.57751105,72.461793 0.01380476,64.964237 0.12827615,47.011464 -0.33120561,29.022046 0.28841364,11.092352 1.6977442,3.6665574 9.6777056,-1.0926594 16.940448,0.00280537 37.41679,0.16540097 57.925233,-0.3448399 78.381275,0.27028717 84.70647,1.4522013 89.718227,7.5146019 89.62,13.96 Z m -10.58,7.73 c 0.69654,-5.220339 0.375523,-13.2702161 -7.212639,-11.072729 -19.541409,0.01771 -39.127102,-0.169251 -58.652656,0.09098 -5.1805721,4.090274 -1.467532,12.582663 -2.577567,18.551442 0.09414,16.691125 -0.164642,33.414888 0.121108,50.085607 2.176612,4.391578 7.981748,2.068376 12.035985,2.574705 4.484363,1.366743 3.468631,-2.789686 3.419257,-5.962908 C 26.296365,61.56994 25.823515,47.146275 26.44841,32.782352 27.887128,25.158216 36.121721,20.541943 43.498436,21.69 c 11.847188,0 23.694376,0 35.541564,0 z m 26.14,87.23 c -0.0798,-24.684346 0.15891,-49.401355 -0.11825,-74.065295 -3.93804,-5.138658 -12.238055,-1.501528 -18.05472,-2.577566 -15.893368,0.09416 -31.819363,-0.164686 -47.692325,0.121107 -5.298927,4.54913 -1.373439,13.613944 -2.577563,20.043319 0.09406,19.087159 -0.164524,38.206977 0.121104,57.273725 3.938043,5.13866 12.238059,1.50153 18.054724,2.57756 15.639009,-7.1e-4 31.278047,-0.0216 46.91703,0.0172 1.78179,0.0224 3.42172,-1.5929 3.35,-3.39 z"
       id="path1"
       style="fill:#ffffff;fill-opacity:1" /></g></svg>
